<?xml version="1.0" encoding="UTF-8"?>
<svg xmlns="http://www.w3.org/2000/svg" height="40" viewBox="0 -960 960 960" width="40"><path d="M479.988-301.538q10.012 0 16.268-6.245 6.257-6.245 6.257-16.256 0-10.012-6.245-16.269-6.245-6.256-16.256-6.256-10.012 0-16.268 6.245-6.257 6.244-6.257 16.256t6.245 16.268q6.245 6.257 16.256 6.257Zm-15.937-130.206h33.846v-244.051h-33.846v244.051ZM480.311-120q-75.008 0-140.332-28.339-65.325-28.34-114.286-77.255-48.961-48.915-77.327-114.228Q120-405.135 120-480.2q0-74.551 28.339-140.182 28.34-65.631 77.255-114.259 48.915-48.627 114.228-76.993Q405.135-840 480.2-840q74.551 0 140.182 28.339 65.631 28.34 114.259 76.922 48.627 48.582 76.993 114.257Q840-554.806 840-480.311q0 75.008-28.339 140.332-28.34 65.325-76.922 114.163-48.582 48.838-114.257 77.327Q554.806-120 480.311-120Zm.022-33.846q135.923 0 230.872-95.026 94.949-95.025 94.949-231.461 0-135.923-94.824-230.872-94.824-94.949-231.33-94.949-136.103 0-231.128 94.824-95.026 94.824-95.026 231.33 0 136.103 95.026 231.128 95.025 95.026 231.461 95.026ZM480-480Z"/></svg>
